<svg width="1060" height="187" viewBox="0 0 1060 187" fill="none" xmlns="http://www.w3.org/2000/svg">
<g clip-path="url(#clip0_295_8472)">
<path d="M1218.15 182.834C1174.15 188.495 1056.35 193.23 937.097 166.879C788.031 133.94 659.928 94.8258 447.975 112.324C236.022 129.823 157.607 151.439 0.000366211 131.882" stroke="#BF9D7D"/>
<path d="M1218.15 182.834C1174.15 188.495 1056.35 193.23 937.097 166.879C788.031 133.94 659.928 94.8258 447.975 112.324C236.022 129.823 157.607 151.439 0.000366211 131.882" stroke="black" stroke-opacity="0.2"/>
<path d="M1218.15 170.834C1174.15 176.495 1056.35 181.23 937.097 154.879C788.031 121.94 659.928 82.8258 447.975 100.324C236.022 117.823 157.607 139.439 0.000366211 119.882" stroke="#BF9D7D"/>
<path d="M1218.15 170.834C1174.15 176.495 1056.35 181.23 937.097 154.879C788.031 121.94 659.928 82.8258 447.975 100.324C236.022 117.823 157.607 139.439 0.000366211 119.882" stroke="black" stroke-opacity="0.2"/>
<path d="M1218.15 158.834C1174.15 164.495 1056.35 169.23 937.097 142.879C788.031 109.94 659.928 70.8258 447.975 88.3245C236.022 105.823 157.607 127.439 0.000366211 107.882" stroke="#BF9D7D"/>
<path d="M1218.15 158.834C1174.15 164.495 1056.35 169.23 937.097 142.879C788.031 109.94 659.928 70.8258 447.975 88.3245C236.022 105.823 157.607 127.439 0.000366211 107.882" stroke="black" stroke-opacity="0.2"/>
<path d="M1218.15 146.834C1174.15 152.495 1056.35 157.23 937.097 130.879C788.031 97.9405 659.928 58.8258 447.975 76.3245C236.022 93.8232 157.607 115.439 0.000366211 95.8818" stroke="#BF9D7D"/>
<path d="M1218.15 146.834C1174.15 152.495 1056.35 157.23 937.097 130.879C788.031 97.9405 659.928 58.8258 447.975 76.3245C236.022 93.8232 157.607 115.439 0.000366211 95.8818" stroke="black" stroke-opacity="0.2"/>
<path d="M1218.15 134.834C1174.15 140.495 1056.35 145.23 937.097 118.879C788.031 85.9405 659.928 46.8258 447.975 64.3245C236.022 81.8232 157.607 103.439 0.000366211 83.8818" stroke="#BF9D7D"/>
<path d="M1218.15 134.834C1174.15 140.495 1056.35 145.23 937.097 118.879C788.031 85.9405 659.928 46.8258 447.975 64.3245C236.022 81.8232 157.607 103.439 0.000366211 83.8818" stroke="black" stroke-opacity="0.2"/>
<path d="M1218.15 122.834C1174.15 128.495 1056.35 133.23 937.097 106.879C788.031 73.9405 659.928 34.8258 447.975 52.3245C236.022 69.8232 157.607 91.4391 0.000366211 71.8818" stroke="#BF9D7D"/>
<path d="M1218.15 122.834C1174.15 128.495 1056.35 133.23 937.097 106.879C788.031 73.9405 659.928 34.8258 447.975 52.3245C236.022 69.8232 157.607 91.4391 0.000366211 71.8818" stroke="black" stroke-opacity="0.2"/>
<path d="M1218.15 110.834C1174.15 116.495 1056.35 121.23 937.097 94.8791C788.031 61.9405 659.928 22.8258 447.975 40.3245C236.022 57.8232 157.607 79.4391 0.000366211 59.8818" stroke="#BF9D7D"/>
<path d="M1218.15 110.834C1174.15 116.495 1056.35 121.23 937.097 94.8791C788.031 61.9405 659.928 22.8258 447.975 40.3245C236.022 57.8232 157.607 79.4391 0.000366211 59.8818" stroke="black" stroke-opacity="0.2"/>
<path d="M1218.15 98.8338C1174.15 104.495 1056.35 109.23 937.097 82.8791C788.031 49.9405 659.928 10.8258 447.975 28.3245C236.022 45.8232 157.607 67.4391 0.000366211 47.8818" stroke="#BF9D7D"/>
<path d="M1218.15 98.8338C1174.15 104.495 1056.35 109.23 937.097 82.8791C788.031 49.9405 659.928 10.8258 447.975 28.3245C236.022 45.8232 157.607 67.4391 0.000366211 47.8818" stroke="black" stroke-opacity="0.2"/>
<path d="M1218.15 86.8338C1174.15 92.4951 1056.35 97.2301 937.097 70.8791C788.031 37.9405 659.928 -1.17417 447.975 16.3245C236.022 33.8232 157.607 55.4391 0.000366211 35.8818" stroke="#BF9D7D"/>
<path d="M1218.15 86.8338C1174.15 92.4951 1056.35 97.2301 937.097 70.8791C788.031 37.9405 659.928 -1.17417 447.975 16.3245C236.022 33.8232 157.607 55.4391 0.000366211 35.8818" stroke="black" stroke-opacity="0.2"/>
<path d="M1218.15 74.8338C1174.15 80.4951 1056.35 85.2301 937.097 58.8791C788.031 25.9405 659.928 -13.1742 447.975 4.32449C236.022 21.8232 157.607 43.4391 0.000366211 23.8818" stroke="#BF9D7D"/>
<path d="M1218.15 74.8338C1174.15 80.4951 1056.35 85.2301 937.097 58.8791C788.031 25.9405 659.928 -13.1742 447.975 4.32449C236.022 21.8232 157.607 43.4391 0.000366211 23.8818" stroke="black" stroke-opacity="0.2"/>
</g>
<defs>
<clipPath id="clip0_295_8472">
<rect width="1060" height="187" fill="white"/>
</clipPath>
</defs>
</svg>
