<svg width="40" height="40" viewBox="0 0 40 40" fill="none" xmlns="http://www.w3.org/2000/svg">
<rect x="0.5" y="0.5" width="39" height="39" rx="19.5" stroke="white"/>
<g clip-path="url(#clip0_907_1470)">
<path fill-rule="evenodd" clip-rule="evenodd" d="M24 11C25.3261 11 26.5979 11.5268 27.5355 12.4645C28.4732 13.4021 29 14.6739 29 16V24C29 25.3261 28.4732 26.5979 27.5355 27.5355C26.5979 28.4732 25.3261 29 24 29H16C14.6739 29 13.4021 28.4732 12.4645 27.5355C11.5268 26.5979 11 25.3261 11 24V16C11 14.6739 11.5268 13.4021 12.4645 12.4645C13.4021 11.5268 14.6739 11 16 11H24ZM24 13H16C15.2044 13 14.4413 13.3161 13.8787 13.8787C13.3161 14.4413 13 15.2044 13 16V24C13 24.7956 13.3161 25.5587 13.8787 26.1213C14.4413 26.6839 15.2044 27 16 27H24C24.7956 27 25.5587 26.6839 26.1213 26.1213C26.6839 25.5587 27 24.7956 27 24V16C27 15.2044 26.6839 14.4413 26.1213 13.8787C25.5587 13.3161 24.7956 13 24 13ZM20 16C21.0609 16 22.0783 16.4214 22.8284 17.1716C23.5786 17.9217 24 18.9391 24 20C24 21.0609 23.5786 22.0783 22.8284 22.8284C22.0783 23.5786 21.0609 24 20 24C18.9391 24 17.9217 23.5786 17.1716 22.8284C16.4214 22.0783 16 21.0609 16 20C16 18.9391 16.4214 17.9217 17.1716 17.1716C17.9217 16.4214 18.9391 16 20 16ZM20 18C19.4696 18 18.9609 18.2107 18.5858 18.5858C18.2107 18.9609 18 19.4696 18 20C18 20.5304 18.2107 21.0391 18.5858 21.4142C18.9609 21.7893 19.4696 22 20 22C20.5304 22 21.0391 21.7893 21.4142 21.4142C21.7893 21.0391 22 20.5304 22 20C22 19.4696 21.7893 18.9609 21.4142 18.5858C21.0391 18.2107 20.5304 18 20 18ZM24.5 14.5C24.7652 14.5 25.0196 14.6054 25.2071 14.7929C25.3946 14.9804 25.5 15.2348 25.5 15.5C25.5 15.7652 25.3946 16.0196 25.2071 16.2071C25.0196 16.3946 24.7652 16.5 24.5 16.5C24.2348 16.5 23.9804 16.3946 23.7929 16.2071C23.6054 16.0196 23.5 15.7652 23.5 15.5C23.5 15.2348 23.6054 14.9804 23.7929 14.7929C23.9804 14.6054 24.2348 14.5 24.5 14.5Z" fill="white"/>
</g>
<defs>
<clipPath id="clip0_907_1470">
<rect width="24" height="24" fill="white" transform="translate(8 8)"/>
</clipPath>
</defs>
</svg>
